<?xml version="1.0" encoding="UTF-8"?>
<!DOCTYPE svg PUBLIC "-//W3C//DTD SVG 1.1//EN" "http://www.w3.org/Graphics/SVG/1.1/DTD/svg11.dtd">
<svg xmlns="http://www.w3.org/2000/svg" version="1.1" width="50px" height="50px" style="shape-rendering:geometricPrecision; text-rendering:geometricPrecision; image-rendering:optimizeQuality; fill-rule:evenodd; clip-rule:evenodd" xmlns:xlink="http://www.w3.org/1999/xlink">
<g><path style="opacity:0.573" fill="#fefffe" d="M 18.5,5.5 C 23.1785,5.33418 27.8452,5.50085 32.5,6C 35.0405,7.0404 36.7071,8.87373 37.5,11.5C 38.7362,12.2458 40.0695,12.5792 41.5,12.5C 41.5,14.1667 41.5,15.8333 41.5,17.5C 40.0695,17.4208 38.7362,17.7542 37.5,18.5C 36.8659,20.5668 35.8659,22.4002 34.5,24C 36.2182,24.346 37.8849,24.846 39.5,25.5C 40.4959,31.4632 40.8293,37.4632 40.5,43.5C 30.1667,43.5 19.8333,43.5 9.5,43.5C 9.33398,38.1563 9.50065,32.8229 10,27.5C 11.514,25.2344 13.6807,24.0677 16.5,24C 15.283,22.3523 14.4497,20.519 14,18.5C 10.4079,18.074 8.90788,16.074 9.5,12.5C 10.9305,12.5792 12.2638,12.2458 13.5,11.5C 14.7197,9.01888 16.3863,7.01888 18.5,5.5 Z M 19.5,7.5 C 24.2973,7.12114 28.964,7.62114 33.5,9C 34.6295,13.0785 34.7961,17.2452 34,21.5C 29.0025,23.7351 23.8359,24.0685 18.5,22.5C 16.9713,20.2927 16.3047,17.7927 16.5,15C 16.6667,13.1667 16.8333,11.3333 17,9.5C 17.9947,8.93406 18.828,8.26739 19.5,7.5 Z M 12.5,27.5 C 21.1667,27.5 29.8333,27.5 38.5,27.5C 38.5,32.1667 38.5,36.8333 38.5,41.5C 37.5,41.5 36.5,41.5 35.5,41.5C 35.5,38.1667 35.5,34.8333 35.5,31.5C 34.5,31.5 33.5,31.5 32.5,31.5C 32.5,34.8333 32.5,38.1667 32.5,41.5C 27.8333,41.5 23.1667,41.5 18.5,41.5C 17.8333,28.1667 17.1667,28.1667 16.5,41.5C 15.1667,41.5 13.8333,41.5 12.5,41.5C 12.5,36.8333 12.5,32.1667 12.5,27.5 Z"/></g>
<g><path style="opacity:0.62" fill="#fefffe" d="M 18.5,11.5 C 20.1667,11.5 21.8333,11.5 23.5,11.5C 23.5,13.1667 23.5,14.8333 23.5,16.5C 21.8333,16.5 20.1667,16.5 18.5,16.5C 18.5,14.8333 18.5,13.1667 18.5,11.5 Z"/></g>
<g><path style="opacity:0.62" fill="#fefffe" d="M 27.5,11.5 C 29.1667,11.5 30.8333,11.5 32.5,11.5C 32.5,13.1667 32.5,14.8333 32.5,16.5C 30.8333,16.5 29.1667,16.5 27.5,16.5C 27.5,14.8333 27.5,13.1667 27.5,11.5 Z"/></g>
</svg>
