<?xml version="1.0" encoding="UTF-8"?>
<!DOCTYPE svg PUBLIC "-//W3C//DTD SVG 1.1//EN" "http://www.w3.org/Graphics/SVG/1.1/DTD/svg11.dtd">
<svg xmlns="http://www.w3.org/2000/svg" version="1.1" width="50px" height="50px" style="shape-rendering:geometricPrecision; text-rendering:geometricPrecision; image-rendering:optimizeQuality; fill-rule:evenodd; clip-rule:evenodd" xmlns:xlink="http://www.w3.org/1999/xlink">
<g><path style="opacity:0.922" fill="#fefffe" d="M 7.5,1.5 C 8.83333,1.5 10.1667,1.5 11.5,1.5C 11.5,5.5 11.5,9.5 11.5,13.5C 10.1667,13.5 8.83333,13.5 7.5,13.5C 7.5,9.5 7.5,5.5 7.5,1.5 Z"/></g>
<g><path style="opacity:0.922" fill="#fefffe" d="M 16.5,1.5 C 17.8333,1.5 19.1667,1.5 20.5,1.5C 20.5,5.5 20.5,9.5 20.5,13.5C 19.1667,13.5 17.8333,13.5 16.5,13.5C 16.5,9.5 16.5,5.5 16.5,1.5 Z"/></g>
<g><path style="opacity:0.922" fill="#fefffe" d="M 25.5,1.5 C 26.8333,1.5 28.1667,1.5 29.5,1.5C 29.5,5.5 29.5,9.5 29.5,13.5C 28.1667,13.5 26.8333,13.5 25.5,13.5C 25.5,9.5 25.5,5.5 25.5,1.5 Z"/></g>
<g><path style="opacity:0.888" fill="#fefffe" d="M 1.5,15.5 C 12.8333,15.5 24.1667,15.5 35.5,15.5C 35.5,17.1667 35.5,18.8333 35.5,20.5C 44.9703,20.474 48.8036,25.1407 47,34.5C 44.6101,39.1141 40.7768,41.2808 35.5,41C 34.1667,43.6667 32.1667,45.6667 29.5,47C 22.1667,47.6667 14.8333,47.6667 7.5,47C 5,45.8333 3.16667,44 2,41.5C 1.50025,32.8397 1.33358,24.1731 1.5,15.5 Z M 5.5,19.5 C 14.1667,19.5 22.8333,19.5 31.5,19.5C 31.8288,26.2414 31.3288,32.908 30,39.5C 26.8796,42.7076 23.0463,44.0409 18.5,43.5C 13.9537,44.0409 10.1204,42.7076 7,39.5C 5.62256,32.9236 5.12256,26.2569 5.5,19.5 Z M 35.5,25.5 C 42.2519,25.8335 43.9186,29.0002 40.5,35C 38.8659,35.4935 37.1992,35.6602 35.5,35.5C 35.5,32.1667 35.5,28.8333 35.5,25.5 Z"/></g>
</svg>
