<?xml version="1.0" encoding="UTF-8"?>
<!DOCTYPE svg PUBLIC "-//W3C//DTD SVG 1.1//EN" "http://www.w3.org/Graphics/SVG/1.1/DTD/svg11.dtd">
<svg xmlns="http://www.w3.org/2000/svg" version="1.1" width="32px" height="32px" style="shape-rendering:geometricPrecision; text-rendering:geometricPrecision; image-rendering:optimizeQuality; fill-rule:evenodd; clip-rule:evenodd" xmlns:xlink="http://www.w3.org/1999/xlink">
<g><path style="opacity:0.759" fill="#fefffe" d="M 31.5,5.5 C 31.5,11.8333 31.5,18.1667 31.5,24.5C 20.8333,25.8333 10.1667,25.8333 -0.5,24.5C -0.5,18.1667 -0.5,11.8333 -0.5,5.5C 10.1667,4.16667 20.8333,4.16667 31.5,5.5 Z M 3.5,6.5 C 12.0041,6.0328 20.3374,6.5328 28.5,8C 24.5623,11.7803 20.2289,14.9469 15.5,17.5C 10.7711,14.9469 6.43773,11.7803 2.5,8C 3.05596,7.61742 3.38929,7.11742 3.5,6.5 Z M 1.5,10.5 C 3.34004,12.168 5.34004,13.668 7.5,15C 5.39113,16.1411 3.55779,17.6411 2,19.5C 1.50204,16.5184 1.33537,13.5184 1.5,10.5 Z M 28.5,10.5 C 29.6378,13.3035 29.8045,16.3035 29,19.5C 27.4422,17.6411 25.6089,16.1411 23.5,15C 25.6175,13.9509 27.2842,12.4509 28.5,10.5 Z M 8.5,16.5 C 10.6207,17.9433 12.954,18.9433 15.5,19.5C 17.9368,19.4016 19.9368,18.4016 21.5,16.5C 24.1963,17.8509 26.5296,19.6843 28.5,22C 20.3311,23.6319 11.9977,23.9652 3.5,23C 3.16667,22.6667 2.83333,22.3333 2.5,22C 4.3962,19.932 6.3962,18.0987 8.5,16.5 Z"/></g>
</svg>
