<?xml version="1.0" encoding="UTF-8"?>
<!DOCTYPE svg PUBLIC "-//W3C//DTD SVG 1.1//EN" "http://www.w3.org/Graphics/SVG/1.1/DTD/svg11.dtd">
<svg xmlns="http://www.w3.org/2000/svg" version="1.1" width="50px" height="50px" style="shape-rendering:geometricPrecision; text-rendering:geometricPrecision; image-rendering:optimizeQuality; fill-rule:evenodd; clip-rule:evenodd" xmlns:xlink="http://www.w3.org/1999/xlink">
<g><path style="opacity:0.8" fill="#fefffe" d="M 18.5,-0.5 C 23.1667,-0.5 27.8333,-0.5 32.5,-0.5C 40.5256,2.85892 46.1923,8.52559 49.5,16.5C 49.5,21.5 49.5,26.5 49.5,31.5C 41.7434,47.456 29.5768,52.1227 13,45.5C 9.70909,46.7568 6.54242,48.0901 3.5,49.5C 2.16667,49.5 0.833333,49.5 -0.5,49.5C -0.5,48.5 -0.5,47.5 -0.5,46.5C 3.16475,41.3862 3.66475,36.0529 1,30.5C -1.40936,15.3024 4.42398,4.96906 18.5,-0.5 Z M 19.5,4.5 C 37.6699,3.16893 45.8365,11.5023 44,29.5C 40.8478,38.3001 34.5145,42.9668 25,43.5C 20.9794,43.2153 17.1461,42.2153 13.5,40.5C 11.1465,41.3509 8.81321,41.8509 6.5,42C 7.78648,39.9777 8.78648,37.8111 9.5,35.5C 7.5628,33.9602 6.39613,31.9602 6,29.5C 3.76045,17.3009 8.26045,8.96754 19.5,4.5 Z"/></g>
<g><path style="opacity:0.826" fill="#fefffe" d="M 15.5,11.5 C 20.3225,12.4524 22.1558,15.4524 21,20.5C 19.3851,21.656 19.3851,22.9893 21,24.5C 22.7875,26.9576 25.1208,28.6242 28,29.5C 29.1357,28.2173 30.469,27.2173 32,26.5C 34.4412,27.6345 36.6079,29.1345 38.5,31C 36.8483,35.8261 33.515,37.4928 28.5,36C 19.6993,33.0552 14.366,27.0552 12.5,18C 12.3912,15.2884 13.3912,13.1217 15.5,11.5 Z"/></g>
</svg>
